<svg width="24" height="24" fill="none" xmlns="http://www.w3.org/2000/svg"><path d="M12.627 18c3.038 0 1.954-1.758 2.189-2.264-.004-.378-.007-.74.007-.962.192.05.647.26 1.585 1.094C17.856 17.204 18.226 18 19.396 18h2.153c.683 0 1.038-.258 1.215-.475.172-.21.34-.578.156-1.15-.48-1.38-3.282-3.761-3.456-4.013.026-.046.068-.108.09-.14h-.002c.553-.668 2.664-3.559 2.974-4.716l.002-.006c.168-.528.014-.87-.145-1.064-.24-.29-.621-.436-1.137-.436h-2.153c-.721 0-1.268.332-1.544.938-.463 1.076-1.763 3.288-2.738 4.072a46.8 46.8 0 01.006-2.587C14.848 7.195 14.95 6 13.556 6h-3.384c-.874 0-1.71.872-.805 1.907.791.907.285 1.413.455 3.93-.665-.652-1.848-2.413-2.684-4.663C6.903 6.564 6.548 6 5.548 6H3.395C2.522 6 2 6.436 2 7.165 2 8.802 5.963 18 12.627 18zM5.548 7.2c.19 0 .21 0 .35.366.857 2.307 2.778 5.72 4.182 5.72 1.054 0 1.054-.988 1.054-1.36V8.964c-.059-.98-.449-1.468-.705-1.764l3.07.003c.001.014-.018 3.276.008 4.067 0 1.122.975 1.765 2.496.357 1.606-1.657 2.716-4.133 2.761-4.234.066-.144.123-.193.329-.193h2.163c-.002.002-.002.005-.003.007-.197.84-2.14 3.517-2.79 4.348l-.03.04c-.286.427-.519.9.04 1.563.051.056.183.188.376.37.598.565 2.651 2.496 2.833 3.264-.12.018-.252.005-2.286.009-.433 0-.772-.592-2.064-1.784-1.162-1.034-1.917-1.456-2.604-1.456-1.333 0-1.236.99-1.224 2.186.005 1.298-.004.887.006.969-.078.028-.301.084-.883.084-5.552 0-9.167-8.057-9.307-9.597.049-.004.71-.001 2.228-.002z" fill="#fff"/></svg>