<svg width="163" height="20" fill="none" xmlns="http://www.w3.org/2000/svg"><path d="M.537 19V.516h4.888c2.158 0 3.876.685 5.154 2.056 1.287 1.371 1.942 3.25 1.968 5.637v2.996c0 2.43-.643 4.338-1.93 5.726C9.34 18.31 7.575 19 5.323 19H.537zM4.27 3.626v12.276h1.117c1.244 0 2.12-.325 2.628-.977.507-.66.774-1.795.8-3.402V8.31c0-1.727-.242-2.929-.724-3.606-.483-.685-1.304-1.045-2.463-1.079H4.27zm19.512 11.59h-5.09L17.701 19h-3.95L19.53.516h3.415L28.76 19h-3.986l-.99-3.783zm-4.278-3.11h3.453L21.23 5.518l-1.726 6.588zM43.422 19H39.69L34.23 6.876V19h-3.732V.516h3.732l5.472 12.136V.516h3.72V19zm15.526-6.157c-.093 2.107-.685 3.703-1.777 4.786-1.092 1.083-2.632 1.625-4.621 1.625-2.09 0-3.694-.686-4.812-2.057-1.108-1.38-1.663-3.343-1.663-5.89v-3.11c0-2.54.576-4.495 1.727-5.866 1.15-1.38 2.75-2.07 4.799-2.07 2.014 0 3.542.564 4.583 1.69 1.05 1.125 1.646 2.741 1.79 4.849h-3.745c-.034-1.304-.237-2.2-.61-2.692-.364-.499-1.037-.749-2.018-.749-1 0-1.706.352-2.12 1.054-.415.694-.635 1.84-.66 3.44v3.492c0 1.836.202 3.097.609 3.783.414.685 1.121 1.028 2.12 1.028.982 0 1.659-.237 2.031-.71.372-.483.584-1.35.635-2.603h3.732zm11.845-1.841h-5.815v4.9h6.881V19H61.246V.516h10.588v3.11h-6.856v4.367h5.815v3.009z" fill="#E62175"/><path d="M92.54 12.843c-.093 2.107-.686 3.703-1.777 4.786-1.092 1.083-2.633 1.625-4.621 1.625-2.09 0-3.695-.686-4.812-2.057-1.109-1.38-1.663-3.343-1.663-5.89v-3.11c0-2.54.576-4.495 1.727-5.866 1.15-1.38 2.75-2.07 4.798-2.07 2.015 0 3.542.564 4.583 1.69 1.05 1.125 1.646 2.741 1.79 4.849H88.82c-.033-1.304-.237-2.2-.61-2.692-.363-.499-1.036-.749-2.018-.749-.998 0-1.705.352-2.12 1.054-.414.694-.635 1.84-.66 3.44v3.492c0 1.836.203 3.097.61 3.783.414.685 1.12 1.028 2.12 1.028.981 0 1.659-.237 2.03-.71.373-.483.585-1.35.636-2.603h3.732zm11.845-1.841H98.57v4.9h6.881V19H94.838V.516h10.588v3.11H98.57v4.367h5.815v3.009zM120.533 19h-3.732l-5.459-12.124V19h-3.733V.516h3.733l5.471 12.136V.516h3.72V19zM135.12 3.626h-4.57V19h-3.745V3.626h-4.494V.516h12.809v3.11zm11.692 7.376h-5.814v4.9h6.881V19h-10.613V.516h10.588v3.11h-6.856v4.367h5.814v3.009zm8.824 1.244h-1.854V19h-3.732V.516h5.954c1.87 0 3.313.486 4.329 1.46 1.024.964 1.536 2.34 1.536 4.126 0 2.454-.893 4.172-2.679 5.154l3.238 7.566V19h-4.012l-2.78-6.754zm-1.854-3.11h2.12c.745 0 1.304-.246 1.676-.737.373-.499.559-1.163.559-1.993 0-1.853-.724-2.78-2.171-2.78h-2.184v5.51z" fill="#fff"/></svg>