<svg width="141" height="60" viewBox="0 0 141 60" fill="none" xmlns="http://www.w3.org/2000/svg">
<path d="M76.098 21.3H70.248L69.132 24H66.144L71.76 11.4H74.64L80.274 24H77.214L76.098 21.3ZM75.18 19.086L73.182 14.262L71.184 19.086H75.18ZM89.5024 14.316V24H86.6944V16.62H83.6344L83.5444 18.33C83.4964 19.602 83.3764 20.658 83.1844 21.498C82.9924 22.338 82.6804 22.998 82.2484 23.478C81.8164 23.958 81.2164 24.198 80.4484 24.198C80.0404 24.198 79.5544 24.126 78.9904 23.982L79.1344 21.678C79.3264 21.702 79.4644 21.714 79.5484 21.714C79.9684 21.714 80.2804 21.564 80.4844 21.264C80.7004 20.952 80.8444 20.562 80.9164 20.094C80.9884 19.614 81.0424 18.984 81.0784 18.204L81.2224 14.316H89.5024ZM99.9967 19.194C99.9967 19.23 99.9787 19.482 99.9427 19.95H92.6167C92.7487 20.55 93.0607 21.024 93.5527 21.372C94.0447 21.72 94.6567 21.894 95.3887 21.894C95.8927 21.894 96.3367 21.822 96.7207 21.678C97.1167 21.522 97.4827 21.282 97.8187 20.958L99.3127 22.578C98.4007 23.622 97.0687 24.144 95.3167 24.144C94.2247 24.144 93.2587 23.934 92.4187 23.514C91.5787 23.082 90.9307 22.488 90.4747 21.732C90.0187 20.976 89.7907 20.118 89.7907 19.158C89.7907 18.21 90.0127 17.358 90.4567 16.602C90.9127 15.834 91.5307 15.24 92.3107 14.82C93.1027 14.388 93.9847 14.172 94.9567 14.172C95.9047 14.172 96.7627 14.376 97.5307 14.784C98.2987 15.192 98.8987 15.78 99.3307 16.548C99.7747 17.304 99.9967 18.186 99.9967 19.194ZM94.9747 16.296C94.3387 16.296 93.8047 16.476 93.3727 16.836C92.9407 17.196 92.6767 17.688 92.5807 18.312H97.3507C97.2547 17.7 96.9907 17.214 96.5587 16.854C96.1267 16.482 95.5987 16.296 94.9747 16.296ZM104.795 20.328H103.337V24H100.529V14.316H103.337V18.078H104.849L107.477 14.316H110.465L107.081 18.96L110.699 24H107.387L104.795 20.328ZM114.767 24.144C113.735 24.144 112.805 23.934 111.977 23.514C111.161 23.082 110.519 22.488 110.051 21.732C109.595 20.976 109.367 20.118 109.367 19.158C109.367 18.198 109.595 17.34 110.051 16.584C110.519 15.828 111.161 15.24 111.977 14.82C112.805 14.388 113.735 14.172 114.767 14.172C115.787 14.172 116.675 14.388 117.431 14.82C118.199 15.24 118.757 15.846 119.105 16.638L116.927 17.808C116.423 16.92 115.697 16.476 114.749 16.476C114.017 16.476 113.411 16.716 112.931 17.196C112.451 17.676 112.211 18.33 112.211 19.158C112.211 19.986 112.451 20.64 112.931 21.12C113.411 21.6 114.017 21.84 114.749 21.84C115.709 21.84 116.435 21.396 116.927 20.508L119.105 21.696C118.757 22.464 118.199 23.064 117.431 23.496C116.675 23.928 115.787 24.144 114.767 24.144ZM128.482 19.194C128.482 19.23 128.464 19.482 128.428 19.95H121.102C121.234 20.55 121.546 21.024 122.038 21.372C122.53 21.72 123.142 21.894 123.874 21.894C124.378 21.894 124.822 21.822 125.206 21.678C125.602 21.522 125.968 21.282 126.304 20.958L127.798 22.578C126.886 23.622 125.554 24.144 123.802 24.144C122.71 24.144 121.744 23.934 120.904 23.514C120.064 23.082 119.416 22.488 118.96 21.732C118.504 20.976 118.276 20.118 118.276 19.158C118.276 18.21 118.498 17.358 118.942 16.602C119.398 15.834 120.016 15.24 120.796 14.82C121.588 14.388 122.47 14.172 123.442 14.172C124.39 14.172 125.248 14.376 126.016 14.784C126.784 15.192 127.384 15.78 127.816 16.548C128.26 17.304 128.482 18.186 128.482 19.194ZM123.46 16.296C122.824 16.296 122.29 16.476 121.858 16.836C121.426 17.196 121.162 17.688 121.066 18.312H125.836C125.74 17.7 125.476 17.214 125.044 16.854C124.612 16.482 124.084 16.296 123.46 16.296ZM129.015 14.316H131.805V20.076L136.521 14.316H139.095V24H136.305V18.24L131.607 24H129.015V14.316ZM133.875 13.272C131.763 13.272 130.701 12.342 130.689 10.482H132.525C132.537 10.902 132.651 11.232 132.867 11.472C133.095 11.7 133.425 11.814 133.857 11.814C134.289 11.814 134.619 11.7 134.847 11.472C135.087 11.232 135.207 10.902 135.207 10.482H137.079C137.067 12.342 135.999 13.272 133.875 13.272Z" fill="white"/>
<path d="M72.363 31.7V38H71.706V32.276H67.719V38H67.062V31.7H72.363ZM78.4758 35.831H74.5158C74.5518 36.323 74.7408 36.722 75.0828 37.028C75.4248 37.328 75.8568 37.478 76.3788 37.478C76.6728 37.478 76.9428 37.427 77.1888 37.325C77.4348 37.217 77.6478 37.061 77.8278 36.857L78.1878 37.271C77.9778 37.523 77.7138 37.715 77.3958 37.847C77.0838 37.979 76.7388 38.045 76.3608 38.045C75.8748 38.045 75.4428 37.943 75.0648 37.739C74.6928 37.529 74.4018 37.241 74.1918 36.875C73.9818 36.509 73.8768 36.095 73.8768 35.633C73.8768 35.171 73.9758 34.757 74.1738 34.391C74.3778 34.025 74.6538 33.74 75.0018 33.536C75.3558 33.332 75.7518 33.23 76.1898 33.23C76.6278 33.23 77.0208 33.332 77.3688 33.536C77.7168 33.74 77.9898 34.025 78.1878 34.391C78.3858 34.751 78.4848 35.165 78.4848 35.633L78.4758 35.831ZM76.1898 33.779C75.7338 33.779 75.3498 33.926 75.0378 34.22C74.7318 34.508 74.5578 34.886 74.5158 35.354H77.8728C77.8308 34.886 77.6538 34.508 77.3418 34.22C77.0358 33.926 76.6518 33.779 76.1898 33.779ZM82.3382 33.23C82.7822 33.23 83.1842 33.332 83.5442 33.536C83.9042 33.734 84.1862 34.016 84.3902 34.382C84.5942 34.748 84.6962 35.165 84.6962 35.633C84.6962 36.107 84.5942 36.527 84.3902 36.893C84.1862 37.259 83.9042 37.544 83.5442 37.748C83.1902 37.946 82.7882 38.045 82.3382 38.045C81.9542 38.045 81.6062 37.967 81.2942 37.811C80.9882 37.649 80.7362 37.415 80.5382 37.109V39.746H79.8992V33.266H80.5112V34.202C80.7032 33.89 80.9552 33.65 81.2672 33.482C81.5852 33.314 81.9422 33.23 82.3382 33.23ZM82.2932 37.478C82.6232 37.478 82.9232 37.403 83.1932 37.253C83.4632 37.097 83.6732 36.878 83.8232 36.596C83.9792 36.314 84.0572 35.993 84.0572 35.633C84.0572 35.273 83.9792 34.955 83.8232 34.679C83.6732 34.397 83.4632 34.178 83.1932 34.022C82.9232 33.866 82.6232 33.788 82.2932 33.788C81.9572 33.788 81.6542 33.866 81.3842 34.022C81.1202 34.178 80.9102 34.397 80.7542 34.679C80.6042 34.955 80.5292 35.273 80.5292 35.633C80.5292 35.993 80.6042 36.314 80.7542 36.596C80.9102 36.878 81.1202 37.097 81.3842 37.253C81.6542 37.403 81.9572 37.478 82.2932 37.478ZM88.0492 38.045C87.5812 38.045 87.1612 37.943 86.7892 37.739C86.4232 37.535 86.1352 37.25 85.9252 36.884C85.7152 36.512 85.6102 36.095 85.6102 35.633C85.6102 35.171 85.7152 34.757 85.9252 34.391C86.1352 34.025 86.4232 33.74 86.7892 33.536C87.1612 33.332 87.5812 33.23 88.0492 33.23C88.4572 33.23 88.8202 33.311 89.1382 33.473C89.4622 33.629 89.7172 33.86 89.9032 34.166L89.4262 34.49C89.2702 34.256 89.0722 34.082 88.8322 33.968C88.5922 33.848 88.3312 33.788 88.0492 33.788C87.7072 33.788 87.3982 33.866 87.1222 34.022C86.8522 34.172 86.6392 34.388 86.4832 34.67C86.3332 34.952 86.2582 35.273 86.2582 35.633C86.2582 35.999 86.3332 36.323 86.4832 36.605C86.6392 36.881 86.8522 37.097 87.1222 37.253C87.3982 37.403 87.7072 37.478 88.0492 37.478C88.3312 37.478 88.5922 37.421 88.8322 37.307C89.0722 37.193 89.2702 37.019 89.4262 36.785L89.9032 37.109C89.7172 37.415 89.4622 37.649 89.1382 37.811C88.8142 37.967 88.4512 38.045 88.0492 38.045ZM93.0143 38.045C92.5583 38.045 92.1473 37.943 91.7813 37.739C91.4153 37.529 91.1273 37.241 90.9173 36.875C90.7073 36.509 90.6023 36.095 90.6023 35.633C90.6023 35.171 90.7073 34.757 90.9173 34.391C91.1273 34.025 91.4153 33.74 91.7813 33.536C92.1473 33.332 92.5583 33.23 93.0143 33.23C93.4703 33.23 93.8813 33.332 94.2473 33.536C94.6133 33.74 94.8983 34.025 95.1023 34.391C95.3123 34.757 95.4173 35.171 95.4173 35.633C95.4173 36.095 95.3123 36.509 95.1023 36.875C94.8983 37.241 94.6133 37.529 94.2473 37.739C93.8813 37.943 93.4703 38.045 93.0143 38.045ZM93.0143 37.478C93.3503 37.478 93.6503 37.403 93.9143 37.253C94.1843 37.097 94.3943 36.878 94.5443 36.596C94.6943 36.314 94.7693 35.993 94.7693 35.633C94.7693 35.273 94.6943 34.952 94.5443 34.67C94.3943 34.388 94.1843 34.172 93.9143 34.022C93.6503 33.866 93.3503 33.788 93.0143 33.788C92.6783 33.788 92.3753 33.866 92.1053 34.022C91.8413 34.172 91.6313 34.388 91.4753 34.67C91.3253 34.952 91.2503 35.273 91.2503 35.633C91.2503 35.993 91.3253 36.314 91.4753 36.596C91.6313 36.878 91.8413 37.097 92.1053 37.253C92.3753 37.403 92.6783 37.478 93.0143 37.478ZM96.783 33.266H97.422V35.363H100.401V33.266H101.04V38H100.401V35.912H97.422V38H96.783V33.266ZM104.485 33.23C105.103 33.23 105.577 33.386 105.907 33.698C106.237 34.004 106.402 34.46 106.402 35.066V38H105.79V37.262C105.646 37.508 105.433 37.7 105.151 37.838C104.875 37.976 104.545 38.045 104.161 38.045C103.633 38.045 103.213 37.919 102.901 37.667C102.589 37.415 102.433 37.082 102.433 36.668C102.433 36.266 102.577 35.942 102.865 35.696C103.159 35.45 103.624 35.327 104.26 35.327H105.763V35.039C105.763 34.631 105.649 34.322 105.421 34.112C105.193 33.896 104.86 33.788 104.422 33.788C104.122 33.788 103.834 33.839 103.558 33.941C103.282 34.037 103.045 34.172 102.847 34.346L102.559 33.869C102.799 33.665 103.087 33.509 103.423 33.401C103.759 33.287 104.113 33.23 104.485 33.23ZM104.26 37.541C104.62 37.541 104.929 37.46 105.187 37.298C105.445 37.13 105.637 36.89 105.763 36.578V35.804H104.278C103.468 35.804 103.063 36.086 103.063 36.65C103.063 36.926 103.168 37.145 103.378 37.307C103.588 37.463 103.882 37.541 104.26 37.541ZM111.973 33.266V38H111.334V33.833H109.066L109.003 35.003C108.955 35.987 108.841 36.743 108.661 37.271C108.481 37.799 108.16 38.063 107.698 38.063C107.572 38.063 107.419 38.039 107.239 37.991L107.284 37.442C107.392 37.466 107.467 37.478 107.509 37.478C107.755 37.478 107.941 37.364 108.067 37.136C108.193 36.908 108.277 36.626 108.319 36.29C108.361 35.954 108.397 35.51 108.427 34.958L108.508 33.266H111.973ZM115.824 34.94C116.418 34.946 116.868 35.078 117.174 35.336C117.486 35.594 117.642 35.966 117.642 36.452C117.642 36.956 117.474 37.343 117.138 37.613C116.808 37.883 116.328 38.015 115.698 38.009L113.79 38V33.266H114.429V34.922L115.824 34.94ZM115.662 37.523C116.1 37.529 116.43 37.442 116.652 37.262C116.88 37.076 116.994 36.806 116.994 36.452C116.994 36.104 116.883 35.846 116.661 35.678C116.439 35.51 116.106 35.423 115.662 35.417L114.429 35.399V37.505L115.662 37.523ZM118.861 33.266H119.5V35.363H122.479V33.266H123.118V38H122.479V35.912H119.5V38H118.861V33.266ZM126.923 34.94C127.517 34.946 127.97 35.078 128.282 35.336C128.594 35.594 128.75 35.966 128.75 36.452C128.75 36.956 128.582 37.343 128.246 37.613C127.91 37.883 127.43 38.015 126.806 38.009L124.934 38V33.266H125.573V34.922L126.923 34.94ZM129.542 33.266H130.181V38H129.542V33.266ZM126.77 37.523C127.208 37.529 127.538 37.442 127.76 37.262C127.988 37.076 128.102 36.806 128.102 36.452C128.102 36.104 127.991 35.846 127.769 35.678C127.547 35.51 127.214 35.423 126.77 35.417L125.573 35.399V37.505L126.77 37.523ZM132.001 33.266H132.64V37.028L135.799 33.266H136.366V38H135.727V34.238L132.577 38H132.001V33.266ZM134.152 32.582C133.744 32.582 133.42 32.48 133.18 32.276C132.94 32.072 132.817 31.784 132.811 31.412H133.27C133.276 31.646 133.36 31.835 133.522 31.979C133.684 32.117 133.894 32.186 134.152 32.186C134.41 32.186 134.62 32.117 134.782 31.979C134.95 31.835 135.037 31.646 135.043 31.412H135.502C135.496 31.784 135.37 32.072 135.124 32.276C134.884 32.48 134.56 32.582 134.152 32.582ZM70.239 44.833H68.448V49H67.809V44.833H66.018V44.266H70.239V44.833ZM73.6019 44.23C74.0459 44.23 74.4479 44.332 74.8079 44.536C75.1679 44.734 75.4499 45.016 75.6539 45.382C75.8579 45.748 75.9599 46.165 75.9599 46.633C75.9599 47.107 75.8579 47.527 75.6539 47.893C75.4499 48.259 75.1679 48.544 74.8079 48.748C74.4539 48.946 74.0519 49.045 73.6019 49.045C73.2179 49.045 72.8699 48.967 72.5579 48.811C72.2519 48.649 71.9999 48.415 71.8019 48.109V50.746H71.1629V44.266H71.7749V45.202C71.9669 44.89 72.2189 44.65 72.5309 44.482C72.8489 44.314 73.2059 44.23 73.6019 44.23ZM73.5569 48.478C73.8869 48.478 74.1869 48.403 74.4569 48.253C74.7269 48.097 74.9369 47.878 75.0869 47.596C75.2429 47.314 75.3209 46.993 75.3209 46.633C75.3209 46.273 75.2429 45.955 75.0869 45.679C74.9369 45.397 74.7269 45.178 74.4569 45.022C74.1869 44.866 73.8869 44.788 73.5569 44.788C73.2209 44.788 72.9179 44.866 72.6479 45.022C72.3839 45.178 72.1739 45.397 72.0179 45.679C71.8679 45.955 71.7929 46.273 71.7929 46.633C71.7929 46.993 71.8679 47.314 72.0179 47.596C72.1739 47.878 72.3839 48.097 72.6479 48.253C72.9179 48.403 73.2209 48.478 73.5569 48.478ZM81.4728 46.831H77.5128C77.5488 47.323 77.7378 47.722 78.0798 48.028C78.4218 48.328 78.8538 48.478 79.3758 48.478C79.6698 48.478 79.9398 48.427 80.1858 48.325C80.4318 48.217 80.6448 48.061 80.8248 47.857L81.1848 48.271C80.9748 48.523 80.7108 48.715 80.3928 48.847C80.0808 48.979 79.7358 49.045 79.3578 49.045C78.8718 49.045 78.4398 48.943 78.0618 48.739C77.6898 48.529 77.3988 48.241 77.1888 47.875C76.9788 47.509 76.8738 47.095 76.8738 46.633C76.8738 46.171 76.9728 45.757 77.1708 45.391C77.3748 45.025 77.6508 44.74 77.9988 44.536C78.3528 44.332 78.7488 44.23 79.1868 44.23C79.6248 44.23 80.0178 44.332 80.3658 44.536C80.7138 44.74 80.9868 45.025 81.1848 45.391C81.3828 45.751 81.4818 46.165 81.4818 46.633L81.4728 46.831ZM79.1868 44.779C78.7308 44.779 78.3468 44.926 78.0348 45.22C77.7288 45.508 77.5548 45.886 77.5128 46.354H80.8698C80.8278 45.886 80.6508 45.508 80.3388 45.22C80.0328 44.926 79.6488 44.779 79.1868 44.779ZM82.8963 44.266H83.5353V46.363H86.5143V44.266H87.1533V49H86.5143V46.912H83.5353V49H82.8963V44.266ZM93.1095 46.831H89.1495C89.1855 47.323 89.3745 47.722 89.7165 48.028C90.0585 48.328 90.4905 48.478 91.0125 48.478C91.3065 48.478 91.5765 48.427 91.8225 48.325C92.0685 48.217 92.2815 48.061 92.4615 47.857L92.8215 48.271C92.6115 48.523 92.3475 48.715 92.0295 48.847C91.7175 48.979 91.3725 49.045 90.9945 49.045C90.5085 49.045 90.0765 48.943 89.6985 48.739C89.3265 48.529 89.0355 48.241 88.8255 47.875C88.6155 47.509 88.5105 47.095 88.5105 46.633C88.5105 46.171 88.6095 45.757 88.8075 45.391C89.0115 45.025 89.2875 44.74 89.6355 44.536C89.9895 44.332 90.3855 44.23 90.8235 44.23C91.2615 44.23 91.6545 44.332 92.0025 44.536C92.3505 44.74 92.6235 45.025 92.8215 45.391C93.0195 45.751 93.1185 46.165 93.1185 46.633L93.1095 46.831ZM90.8235 44.779C90.3675 44.779 89.9835 44.926 89.6715 45.22C89.3655 45.508 89.1915 45.886 89.1495 46.354H92.5065C92.4645 45.886 92.2875 45.508 91.9755 45.22C91.6695 44.926 91.2855 44.779 90.8235 44.779ZM96.972 44.23C97.416 44.23 97.818 44.332 98.178 44.536C98.538 44.734 98.82 45.016 99.024 45.382C99.228 45.748 99.33 46.165 99.33 46.633C99.33 47.107 99.228 47.527 99.024 47.893C98.82 48.259 98.538 48.544 98.178 48.748C97.824 48.946 97.422 49.045 96.972 49.045C96.588 49.045 96.24 48.967 95.928 48.811C95.622 48.649 95.37 48.415 95.172 48.109V50.746H94.533V44.266H95.145V45.202C95.337 44.89 95.589 44.65 95.901 44.482C96.219 44.314 96.576 44.23 96.972 44.23ZM96.927 48.478C97.257 48.478 97.557 48.403 97.827 48.253C98.097 48.097 98.307 47.878 98.457 47.596C98.613 47.314 98.691 46.993 98.691 46.633C98.691 46.273 98.613 45.955 98.457 45.679C98.307 45.397 98.097 45.178 97.827 45.022C97.557 44.866 97.257 44.788 96.927 44.788C96.591 44.788 96.288 44.866 96.018 45.022C95.754 45.178 95.544 45.397 95.388 45.679C95.238 45.955 95.163 46.273 95.163 46.633C95.163 46.993 95.238 47.314 95.388 47.596C95.544 47.878 95.754 48.097 96.018 48.253C96.288 48.403 96.591 48.478 96.927 48.478Z" fill="white"/>
<path d="M36.1279 32.3682V27.043C36.1279 26.3132 35.9857 25.6266 35.7012 24.9834C35.429 24.3278 35.0518 23.7588 34.5693 23.2764C34.0869 22.7939 33.5179 22.4167 32.8623 22.1445C32.2191 21.86 31.5326 21.7178 30.8027 21.7178C30.0729 21.7178 29.3802 21.86 28.7246 22.1445C28.0814 22.4167 27.5186 22.7939 27.0361 23.2764C26.5537 23.7588 26.1702 24.3278 25.8857 24.9834C25.6136 25.6266 25.4775 26.3132 25.4775 27.043V32.3682H36.1279ZM41.4531 43H36.1279V37.6748H25.4775V43H20.1709V27.043C20.1709 25.571 20.4492 24.1917 21.0059 22.9053C21.5625 21.6064 22.3171 20.4746 23.2695 19.5098C24.2344 18.5449 25.36 17.7842 26.6465 17.2275C27.9453 16.6709 29.3307 16.3926 30.8027 16.3926C32.2747 16.3926 33.654 16.6709 34.9404 17.2275C36.2393 17.7842 37.3711 18.5449 38.3359 19.5098C39.3008 20.4746 40.0615 21.6064 40.6182 22.9053C41.1748 24.1917 41.4531 25.571 41.4531 27.043V43Z" fill="white"/>
<circle cx="30" cy="30" r="29" stroke="white" stroke-width="2"/>
<circle cx="12.5" cy="21.5" r="2.5" fill="white"/>
</svg>
